<?xml version="1.0"?>
<svg width="500" height="500" viewPort="0 0 120 120" version="1.1" xmlns="http://www.w3.org/2000/svg">
  <polyline fill="none" stroke="black" points="217,231 113.077,171 175.431,135 213.536,157 213.536,181 195.349,191.5 167.637,175.5 181.493,167.5 185.823,170 "/>
  <path fill="none" stroke="black" d="M 125.548,163.8  C 98.8108,96.1159 218.937,67.442 217,15 "/>
  <path fill="none" stroke="black" d="M 232.935,120.2  C 278.183,63.2031 363.078,152.898 407.526,125 "/>
  <polyline fill="none" stroke="black" points="217,231 320.923,171 258.569,135 220.464,157 220.464,181 238.651,191.5 266.363,175.5 252.507,167.5 248.177,170 "/>
  <path fill="none" stroke="black" d="M 308.452,163.8  C 335.189,96.1159 215.063,67.442 217,15 "/>
  <path fill="none" stroke="black" d="M 324.387,278.6  C 396.372,267.913 361.141,149.544 407.526,125 "/>
  <polyline fill="none" stroke="black" points="220.464,237 324.387,177 324.387,249 286.282,271 265.497,259 265.497,238 293.21,222 293.21,238 288.88,240.5 "/>
  <path fill="none" stroke="black" d="M 324.387,191.4  C 396.372,202.087 361.141,320.456 407.526,345 "/>
  <path fill="none" stroke="black" d="M 308.452,306.2  C 335.189,373.884 215.063,402.558 217,455 "/>
  <polyline fill="none" stroke="black" points="220.464,237 220.464,357 282.818,321 282.818,277 262.033,265 243.847,275.5 243.847,307.5 257.703,299.5 257.703,294.5 "/>
  <path fill="none" stroke="black" d="M 232.935,349.8  C 278.183,406.797 363.078,317.102 407.526,345 "/>
  <path fill="none" stroke="black" d="M 125.548,306.2  C 98.8108,373.884 218.937,402.558 217,455 "/>
  <polyline fill="none" stroke="black" points="213.536,237 213.536,357 151.182,321 151.182,277 171.967,265 190.153,275.5 190.153,307.5 176.297,299.5 176.297,294.5 "/>
  <path fill="none" stroke="black" d="M 201.065,349.8  C 155.817,406.797 70.9221,317.102 26.4744,345 "/>
  <path fill="none" stroke="black" d="M 109.613,278.6  C 37.6282,267.913 72.859,149.544 26.4744,125 "/>
  <polyline fill="none" stroke="black" points="213.536,237 109.613,177 109.613,249 147.718,271 168.503,259 168.503,238 140.79,222 140.79,238 145.12,240.5 "/>
  <path fill="none" stroke="black" d="M 109.613,191.4  C 37.6282,202.087 72.859,320.456 26.4744,345 "/>
  <path fill="none" stroke="black" d="M 201.065,120.2  C 155.817,63.2031 70.9221,152.898 26.4744,125 "/>
</svg>